<svg version="1.1" viewBox="0 0 16 16" xmlns="http://www.w3.org/2000/svg">
  <path d="m8 13.601a0.80009 0.80004 0 0 1 0.79449 0.70644l0.0056 0.0936v0.80004a0.80009 0.80004 0 0 1-1.5946 0.09361l-0.0056-0.09361v-0.80004a0.80009 0.80004 0 0 1 0.80009-0.80004m5.051-1.6721 0.07521 0.06641 0.56006 0.56003a0.80009 0.80004 0 0 1-1.0561 1.1977l-0.07521-0.06641-0.56006-0.56003a0.80009 0.80004 0 0 1 0.97451-1.2537zm-9.0458 0.06641a0.80009 0.80004 0 0 1 0.066407 1.0561l-0.066407 0.07521-0.56006 0.56003a0.80009 0.80004 0 0 1-1.1977-1.0561l0.066407-0.07521 0.56006-0.56003a0.80009 0.80004 0 0 1 1.1313 0m-2.4059-4.7947a0.80009 0.80004 0 0 1 0.09361 1.5945l-0.09361 0.0056h-0.80009a0.80009 0.80004 0 0 1-0.09361-1.5945l0.09361-0.0056zm13.602 0a0.80009 0.80004 0 0 1 0.09361 1.5945l-0.09361 0.0056h-0.80009a0.80009 0.80004 0 0 1-0.09361-1.5945l0.09361-0.0056zm-11.831-4.9523 0.075208 0.066404 0.56006 0.56003a0.80009 0.80004 0 0 1-1.0561 1.1977l-0.075208-0.066404-0.56006-0.56003a0.80009 0.80004 0 0 1 0.97371-1.2537zm10.316 0.066404a0.80009 0.80004 0 0 1 0.06641 1.0561l-0.06641 0.075204-0.56006 0.56003a0.80009 0.80004 0 0 1-1.1977-1.0561l0.06641-0.075204 0.56006-0.56003a0.80009 0.80004 0 0 1 1.1313 0m-5.6862-2.3145a0.80009 0.80004 0 0 1 0.79449 0.70644l0.0056 0.093605v0.80004a0.80009 0.80004 0 0 1-1.5946 0.093605l-0.0056-0.093605v-0.80004a0.80009 0.80004 0 0 1 0.80009-0.80004m0 4.0002a4.0004 4.0002 0 1 1-3.9964 4.1738l-4e-3 -0.17361 4e-3 -0.17361a4.0004 4.0002 0 0 1 3.9964-3.8266" fill="#ffd42a" stroke-width=".80007"/>
</svg>
