<svg version="1.1" viewBox="0 0 16 16" xmlns="http://www.w3.org/2000/svg">
  <path d="m8 10.5a2.5 2.5 0 1 0 0-5 2.5 2.5 0 0 0 0 5zm0-1.5a1 1 0 1 1 0-2 1 1 0 0 1 0 2z" fill="#ccc"/>
  <path d="m14.5 9.5h-1.2a5.5 5.5 0 0 0-.4-1l.9-.9a.5.5 0 0 0 0-.7l-1.4-1.4a.5.5 0 0 0-.7 0l-.9.9a5.5 5.5 0 0 0-1-.4v-1.2a.5.5 0 0 0-.5-.5h-2a.5.5 0 0 0-.5.5v1.2a5.5 5.5 0 0 0-1 .4l-.9-.9a.5.5 0 0 0-.7 0l-1.4 1.4a.5.5 0 0 0 0 .7l.9.9a5.5 5.5 0 0 0-.4 1h-1.2a.5.5 0 0 0-.5.5v2a.5.5 0 0 0 .5.5h1.2a5.5 5.5 0 0 0 .4 1l-.9.9a.5.5 0 0 0 0 .7l1.4 1.4a.5.5 0 0 0 .7 0l.9-.9a5.5 5.5 0 0 0 1 .4v1.2a.5.5 0 0 0 .5.5h2a.5.5 0 0 0 .5-.5v-1.2a5.5 5.5 0 0 0 1-.4l.9.9a.5.5 0 0 0 .7 0l1.4-1.4a.5.5 0 0 0 0-.7l-.9-.9a5.5 5.5 0 0 0 .4-1h1.2a.5.5 0 0 0 .5-.5v-2a.5.5 0 0 0-.5-.5z" fill="none" stroke="#ccc" stroke-width="1"/>
</svg>
